HIERARCHY
ROOT Hips
{
	OFFSET 0.000000 103.266502 0.000000
	CHANNELS 6 Xposition Yposition Zposition Xrotation Yrotation Zrotation 
	JOINT Spine
	{
		OFFSET -0.002400 12.777504 0.315300
		CHANNELS 3 Xrotation Yrotation Zrotation
		JOINT Spine1
		{
			OFFSET -0.002067 5.816869 0.032633
			CHANNELS 3 Xrotation Yrotation Zrotation
			JOINT Spine1_split
			{
				OFFSET -0.002067 5.816869 0.032633
				CHANNELS 3 Xrotation Yrotation Zrotation
				JOINT Spine2
				{
					OFFSET -0.002067 5.816869 0.032633
					CHANNELS 3 Xrotation Yrotation Zrotation
					JOINT Neck
					{
						OFFSET -0.003700 21.199493 -0.826900
						CHANNELS 3 Xrotation Yrotation Zrotation
						JOINT Head
						{
							OFFSET 0.000000 20.442200 4.834800
							CHANNELS 3 Xrotation Yrotation Zrotation
							JOINT HeadTop_End
							{
								OFFSET 0.000000 34.668396 4.968400
								CHANNELS 3 Xrotation Yrotation Zrotation
								End Site
								{
									OFFSET 0.000000 0.000000 0.000000
								}
							}
						}
					}
					JOINT LeftShoulder
					{
						OFFSET 3.288150 8.794197 -1.372250
						CHANNELS 3 Xrotation Yrotation Zrotation
						JOINT LeftShoulder_split
						{
							OFFSET 3.288150 8.794197 -1.372250
							CHANNELS 3 Xrotation Yrotation Zrotation
							JOINT LeftArm
							{
								OFFSET 11.953299 -2.279007 -0.146200
								CHANNELS 3 Xrotation Yrotation Zrotation
								JOINT LeftForeArm
								{
									OFFSET 18.448900 0.000000 0.000000
									CHANNELS 3 Xrotation Yrotation Zrotation
									JOINT LeftHand
									{
										OFFSET 29.527798 0.000000 0.000000
										CHANNELS 3 Xrotation Yrotation Zrotation
										JOINT LeftHandThumb1
										{
											OFFSET 10.739754 -2.369614 9.225399
											CHANNELS 3 Xrotation Yrotation Zrotation
											JOINT LeftHandThumb2
											{
												OFFSET 4.926170 -2.844131 2.844125
												CHANNELS 3 Xrotation Yrotation Zrotation
												JOINT LeftHandThumb3
												{
													OFFSET 4.614891 -2.664413 2.664409
													CHANNELS 3 Xrotation Yrotation Zrotation
													JOINT LeftHandThumb4
													{
														OFFSET 4.432465 -2.559082 2.559083
														CHANNELS 3 Xrotation Yrotation Zrotation
														End Site
														{
															OFFSET 0.000000 0.000000 0.000000
														}
													}
												}
											}
										}
										JOINT LeftHandIndex1
										{
											OFFSET 26.467674 0.187653 6.405298
											CHANNELS 3 Xrotation Yrotation Zrotation
											JOINT LeftHandIndex2
											{
												OFFSET 8.792900 0.000000 0.000000
												CHANNELS 3 Xrotation Yrotation Zrotation
												JOINT LeftHandIndex3
												{
													OFFSET 10.075203 0.000000 0.000000
													CHANNELS 3 Xrotation Yrotation Zrotation
													End Site
													{
														OFFSET 0.000000 0.000000 0.000000
													}
												}
											}
										}
										JOINT LeftHandMiddle1
										{
											OFFSET 25.764404 0.000000 0.000000
											CHANNELS 3 Xrotation Yrotation Zrotation
											JOINT LeftHandMiddle2
											{
												OFFSET 9.393974 0.000000 0.000000
												CHANNELS 3 Xrotation Yrotation Zrotation
												JOINT LeftHandMiddle3
												{
													OFFSET 10.771950 0.000000 0.000000
													CHANNELS 3 Xrotation Yrotation Zrotation
													End Site
													{
														OFFSET 0.000000 0.000000 0.000000
													}
												}
											}
										}
										JOINT LeftHandRing1
										{
											OFFSET 24.660927 0.144547 -6.225808
											CHANNELS 3 Xrotation Yrotation Zrotation
											JOINT LeftHandRing2
											{
												OFFSET 9.393799 0.000000 0.000000
												CHANNELS 3 Xrotation Yrotation Zrotation
												JOINT LeftHandRing3
												{
													OFFSET 9.928497 0.000000 0.000000
													CHANNELS 3 Xrotation Yrotation Zrotation
													End Site
													{
														OFFSET 0.000000 0.000000 0.000000
													}
												}
											}
										}
										JOINT LeftHandPinky1
										{
											OFFSET 23.655350 0.125290 -12.815412
											CHANNELS 3 Xrotation Yrotation Zrotation
											JOINT LeftHandPinky2
											{
												OFFSET 8.425102 0.000000 0.000000
												CHANNELS 3 Xrotation Yrotation Zrotation
												JOINT LeftHandPinky3
												{
													OFFSET 8.147003 0.000000 0.000000
													CHANNELS 3 Xrotation Yrotation Zrotation
													End Site
													{
														OFFSET 0.000000 0.000000 0.000000
													}
												}
											}
										}
									}
								}
							}
						}
					}
					JOINT RightShoulder
					{
						OFFSET -3.249400 8.794197 -1.372250
						CHANNELS 3 Xrotation Yrotation Zrotation
						JOINT RightShoulder_split
						{
							OFFSET -3.249400 8.794197 -1.372250
							CHANNELS 3 Xrotation Yrotation Zrotation
							JOINT RightArm
							{
								OFFSET -11.953299 -2.279007 -0.146200
								CHANNELS 3 Xrotation Yrotation Zrotation
								JOINT RightForeArm
								{
									OFFSET -18.448900 0.000000 0.000000
									CHANNELS 3 Xrotation Yrotation Zrotation
									JOINT RightHand
									{
										OFFSET -29.527802 0.000000 0.000000
										CHANNELS 3 Xrotation Yrotation Zrotation
										JOINT RightHandThumb1
										{
											OFFSET -10.739754 -2.369614 9.225399
											CHANNELS 3 Xrotation Yrotation Zrotation
											JOINT RightHandThumb2
											{
												OFFSET -4.926170 -2.844131 2.844125
												CHANNELS 3 Xrotation Yrotation Zrotation
												JOINT RightHandThumb3
												{
													OFFSET -4.614891 -2.664413 2.664409
													CHANNELS 3 Xrotation Yrotation Zrotation
													JOINT RightHandThumb4
													{
														OFFSET -4.432465 -2.559082 2.559083
														CHANNELS 3 Xrotation Yrotation Zrotation
														End Site
														{
															OFFSET 0.000000 0.000000 0.000000
														}
													}
												}
											}
										}
										JOINT RightHandIndex1
										{
											OFFSET -26.467674 0.187653 6.405298
											CHANNELS 3 Xrotation Yrotation Zrotation
											JOINT RightHandIndex2
											{
												OFFSET -8.792900 0.000000 0.000000
												CHANNELS 3 Xrotation Yrotation Zrotation
												JOINT RightHandIndex3
												{
													OFFSET -10.075203 0.000000 0.000000
													CHANNELS 3 Xrotation Yrotation Zrotation
													End Site
													{
														OFFSET 0.000000 0.000000 0.000000
													}
												}
											}
										}
										JOINT RightHandMiddle1
										{
											OFFSET -25.764404 0.000000 0.000000
											CHANNELS 3 Xrotation Yrotation Zrotation
											JOINT RightHandMiddle2
											{
												OFFSET -9.393974 0.000000 0.000000
												CHANNELS 3 Xrotation Yrotation Zrotation
												JOINT RightHandMiddle3
												{
													OFFSET -10.771950 0.000000 0.000000
													CHANNELS 3 Xrotation Yrotation Zrotation
													End Site
													{
														OFFSET 0.000000 0.000000 0.000000
													}
												}
											}
										}
										JOINT RightHandRing1
										{
											OFFSET -24.660927 0.144547 -6.225808
											CHANNELS 3 Xrotation Yrotation Zrotation
											JOINT RightHandRing2
											{
												OFFSET -9.393799 0.000000 0.000000
												CHANNELS 3 Xrotation Yrotation Zrotation
												JOINT RightHandRing3
												{
													OFFSET -9.928497 0.000000 0.000000
													CHANNELS 3 Xrotation Yrotation Zrotation
													End Site
													{
														OFFSET 0.000000 0.000000 0.000000
													}
												}
											}
										}
										JOINT RightHandPinky1
										{
											OFFSET -23.655350 0.125290 -12.815412
											CHANNELS 3 Xrotation Yrotation Zrotation
											JOINT RightHandPinky2
											{
												OFFSET -8.425102 0.000000 0.000000
												CHANNELS 3 Xrotation Yrotation Zrotation
												JOINT RightHandPinky3
												{
													OFFSET -8.147003 0.000000 0.000000
													CHANNELS 3 Xrotation Yrotation Zrotation
													End Site
													{
														OFFSET 0.000000 0.000000 0.000000
													}
												}
											}
										}
									}
								}
							}
						}
					}
				}
			}
		}
	}
	JOINT LeftUpLeg
	{
		OFFSET 11.394100 -6.187798 -0.413800
		CHANNELS 3 Xrotation Yrotation Zrotation
		JOINT LeftLeg
		{
			OFFSET 0.430247 -32.302673 3.732800
			CHANNELS 3 Xrotation Yrotation Zrotation
			JOINT LeftFoot
			{
				OFFSET -0.430247 -48.264931 -6.423300
				CHANNELS 3 Xrotation Yrotation Zrotation
				JOINT LeftToeBase
				{
					OFFSET 4.230900 -16.068199 23.438400
					CHANNELS 3 Xrotation Yrotation Zrotation
					JOINT LeftToe_End
					{
						OFFSET 4.510700 0.695400 19.974600
						CHANNELS 3 Xrotation Yrotation Zrotation
						End Site
						{
							OFFSET 0.000000 0.000000 0.000000
						}
					}
				}
			}
		}
	}
	JOINT RightUpLeg
	{
		OFFSET -11.333700 -6.187798 -0.413800
		CHANNELS 3 Xrotation Yrotation Zrotation
		JOINT RightLeg
		{
			OFFSET -0.430392 -32.302628 3.733000
			CHANNELS 3 Xrotation Yrotation Zrotation
			JOINT RightFoot
			{
				OFFSET 0.430392 -48.264973 -6.423500
				CHANNELS 3 Xrotation Yrotation Zrotation
				JOINT RightToeBase
				{
					OFFSET -4.230900 -16.068199 23.438400
					CHANNELS 3 Xrotation Yrotation Zrotation
					JOINT RightToe_End
					{
						OFFSET -4.510700 0.695400 19.974600
						CHANNELS 3 Xrotation Yrotation Zrotation
						End Site
						{
							OFFSET 0.000000 0.000000 0.000000
						}
					}
				}
			}
		}
	}
}
MOTION
Frames: 4
Frame Time: 0.016667
5.404957 84.760643 1.472038 -3.070176 -42.987626 17.427211 0.356131 -1.855154 7.422190 0.027304 -1.386094 5.062943 0.000000 0.000000 0.000000 -0.080029 -1.272376 5.054158 -11.424514 3.372337 7.860917 -19.486299 29.446264 -6.823215 0.000000 -0.000000 0.000001 -0.548175 2.093926 14.135930 0.000000 0.000000 0.000000 -33.452050 -33.141994 -47.500755 0.000514 -87.864400 0.000451 -23.599349 -10.877273 -3.087995 14.035361 -26.979129 7.263438 13.226124 36.584877 -28.242986 0.587662 16.311294 -9.809438 0.000001 -0.000000 0.000002 0.201887 1.658373 -13.881092 0.378663 2.256070 -19.053508 0.000000 -0.000001 0.000004 0.201421 1.656500 -13.865098 0.379299 2.257887 -19.069521 0.000001 0.000000 -0.000001 0.201888 1.658372 -13.881095 0.378663 2.256070 -19.053506 0.000001 0.000000 0.000002 1.160825 5.598149 -13.431388 0.380585 -1.801556 -19.536764 -0.000001 -0.000000 -0.000000 -0.011246 -5.892457 7.391193 0.000000 0.000000 0.000000 118.821208 72.028129 -83.805970 -0.000013 25.801456 0.000014 -19.295711 3.278948 -3.516591 40.606588 -3.110578 26.124230 -37.849514 -44.265025 -46.874977 -12.282870 -22.415223 -17.633356 0.000000 0.000000 -0.000000 3.635328 -6.110998 61.464463 7.728625 -6.904461 96.464442 -0.000001 -0.000001 0.000002 3.635333 -6.110992 61.464463 7.728606 -6.904471 96.464449 0.000000 0.000002 -0.000002 3.635330 -6.110995 61.464463 7.728622 -6.904457 96.464442 0.000001 -0.000000 -0.000002 3.635332 -6.111001 61.464463 7.728619 -6.904460 96.464442 0.000000 0.000000 0.000001 -32.672927 31.423446 0.778992 57.818808 3.775237 3.414509 -16.491803 19.157361 -5.485457 -0.000045 0.000003 -0.000002 -0.000000 0.000000 -0.000000 -41.298476 13.883949 -34.000449 65.904338 2.984203 -9.331815 -17.967825 -5.965793 21.933930 -1.795046 -0.000007 -0.000003 0.000000 0.000003 0.000000 
5.841116 85.052689 1.531982 -2.237254 -42.511767 18.015788 0.399983 -1.586929 7.403373 0.080685 -1.191918 5.048749 0.000000 0.000000 0.000000 -0.026331 -1.085812 5.036027 -11.396557 3.371365 7.365478 -19.078933 28.735593 -7.123460 -0.000000 0.000000 -0.000001 -0.621172 2.423853 13.794282 0.000000 0.000000 0.000000 -32.468349 -33.363739 -47.016618 0.012121 -89.505674 0.012206 -24.397900 -11.122540 -2.975584 14.573651 -27.004415 6.829635 13.798549 36.351291 -28.336088 0.869709 16.254213 -9.818236 0.000001 -0.000001 0.000002 0.215248 1.711483 -14.335247 0.390032 2.288687 -19.340149 -0.000002 -0.000000 0.000001 0.214773 1.709609 -14.319258 0.390672 2.290506 -19.356155 0.000000 0.000001 -0.000000 0.215248 1.711482 -14.335247 0.390032 2.288687 -19.340147 -0.000001 -0.000001 -0.000001 1.205591 5.643528 -13.888385 0.392224 -1.769035 -19.822565 -0.000001 -0.000001 -0.000003 -0.002585 -5.888129 7.492395 0.000000 0.000000 0.000000 118.408569 71.655993 -83.809228 -0.000005 25.428890 -0.000004 -19.616665 4.100325 -3.061038 40.606588 -3.110578 26.124227 -37.849521 -44.265018 -46.874980 -12.282868 -22.415223 -17.633359 0.000000 -0.000000 0.000001 3.635325 -6.110998 61.464463 7.728620 -6.904459 96.464442 -0.000000 -0.000001 -0.000000 3.635331 -6.110992 61.464463 7.728607 -6.904472 96.464449 0.000000 -0.000000 -0.000000 3.635325 -6.110993 61.464463 7.728622 -6.904461 96.464442 -0.000001 -0.000000 -0.000001 3.635325 -6.111000 61.464463 7.728623 -6.904459 96.464449 0.000002 0.000000 0.000002 -32.933000 30.896945 0.151083 57.145092 3.917775 2.845541 -16.283366 19.241324 -4.956217 -0.000045 0.000003 -0.000002 0.000000 0.000000 0.000000 -42.043759 13.821392 -33.815724 65.287750 2.828288 -9.331207 -17.394479 -5.574279 21.835521 -2.160323 0.000009 0.000004 -0.000000 0.000002 0.000000 
6.270546 85.439697 1.556858 -1.350487 -42.073795 18.622118 0.454886 -1.307922 7.361363 0.140024 -0.990054 5.027511 0.000000 0.000000 0.000000 0.034597 -0.892059 5.011682 -11.378209 3.392053 6.943744 -18.730011 28.242390 -7.478138 -0.000000 -0.000001 -0.000000 -0.713347 2.845083 13.378909 0.000000 0.000000 0.000000 -31.471746 -33.569451 -46.626242 0.012361 -90.796860 0.012462 -24.660323 -11.610465 -3.034252 15.085011 -27.036505 6.348051 14.365795 36.116807 -28.424993 1.150525 16.196967 -9.826639 -0.000001 0.000000 0.000001 0.228963 1.764283 -14.787766 0.401520 2.321127 -19.625751 -0.000001 -0.000002 0.000001 0.228478 1.762417 -14.771773 0.402163 2.322943 -19.641742 -0.000001 0.000001 0.000001 0.228963 1.764282 -14.787768 0.401520 2.321129 -19.625743 -0.000000 -0.000001 -0.000003 1.250551 5.688378 -14.343771 0.403977 -1.736691 -20.107346 -0.000001 -0.000000 -0.000004 0.007039 -5.858255 7.548150 0.000000 0.000000 0.000000 118.019494 71.112535 -83.953366 -0.000019 25.056487 0.000018 -20.278263 5.167637 -2.331191 40.606585 -3.110578 26.124227 -37.849517 -44.265018 -46.874980 -12.282868 -22.415224 -17.633356 -0.000000 0.000000 0.000000 3.635328 -6.110998 61.464463 7.728621 -6.904460 96.464442 0.000001 -0.000000 -0.000002 3.635330 -6.110990 61.464463 7.728603 -6.904478 96.464449 -0.000001 0.000001 -0.000001 3.635326 -6.110994 61.464463 7.728621 -6.904457 96.464442 0.000002 -0.000000 -0.000001 3.635327 -6.111001 61.464463 7.728624 -6.904462 96.464449 -0.000001 -0.000000 -0.000000 -33.087834 30.555111 -0.459497 56.201723 4.092944 2.378939 -15.955090 19.179052 -4.464612 -0.000045 0.000003 -0.000002 -0.000000 -0.000000 -0.000000 -42.963447 13.534037 -33.575639 64.565662 2.639649 -9.355653 -16.823014 -4.845012 21.572748 -2.520422 -0.000022 0.000000 -0.000000 0.000002 0.000000 
6.681431 85.910500 1.549442 -0.439035 -41.645661 19.223096 0.511857 -1.035961 7.295649 0.196460 -0.793568 5.000027 0.000000 0.000000 0.000000 0.093393 -0.702937 4.982097 -11.340866 3.432837 6.607814 -18.475202 27.971481 -7.838868 0.000000 0.000002 -0.000002 -0.812580 3.306770 12.932781 0.000000 0.000000 0.000000 -30.510523 -33.820611 -46.309349 -0.003523 -91.652874 -0.003427 -24.475997 -12.258162 -3.030209 15.587007 -27.071549 5.859859 14.927337 35.881699 -28.509729 1.429822 16.139623 -9.834651 -0.000001 -0.000001 0.000002 0.243046 1.816741 -15.238224 0.413111 2.353360 -19.910020 -0.000001 0.000001 0.000001 0.242541 1.814880 -15.222222 0.413770 2.355178 -19.926032 -0.000000 0.000001 -0.000002 0.243045 1.816740 -15.238224 0.413111 2.353361 -19.910020 0.000001 -0.000001 -0.000003 1.295660 5.732679 -14.797132 0.415834 -1.704555 -20.390792 0.000001 0.000000 -0.000005 0.016832 -5.810535 7.566552 0.000000 0.000000 0.000000 117.834328 70.381432 -84.393735 -0.000003 24.613647 0.000022 -21.332897 6.419905 -1.469769 40.606588 -3.110577 26.124229 -37.849514 -44.265025 -46.874980 -12.282868 -22.415223 -17.633356 -0.000000 -0.000000 0.000001 3.635331 -6.110997 61.464463 7.728622 -6.904464 96.464442 0.000001 -0.000001 -0.000000 3.635332 -6.110990 61.464463 7.728602 -6.904470 96.464449 0.000003 0.000003 -0.000000 3.635327 -6.110994 61.464463 7.728624 -6.904460 96.464442 -0.000003 -0.000001 0.000000 3.635333 -6.110998 61.464463 7.728622 -6.904464 96.464449 -0.000001 -0.000000 0.000002 -33.126158 30.431505 -1.060322 55.009555 4.276380 2.068906 -15.512852 18.954111 -4.019343 -0.000045 0.000003 -0.000002 -0.000000 0.000000 -0.000000 -43.954934 13.033177 -33.386788 63.661304 2.440363 -9.394485 -16.173482 -3.904001 21.237966 -2.930890 -0.000024 0.000000 -0.000000 0.000002 0.000000 
